<svg width="16" height="16" viewBox="0 0 16 16" fill="none" xmlns="http://www.w3.org/2000/svg">
<path d="M14.543 7.75537C15.0442 8.39863 15.3329 9.1486 15.333 9.95068C15.333 10.5728 15.1602 11.1645 14.8486 11.6987C14.6967 11.9591 14.8711 12.8508 15.0518 13.5767C15.1537 13.9863 14.7423 14.364 14.3438 14.2251C13.5729 13.9566 12.5805 13.6614 12.2529 13.7896C11.4777 14.0927 10.5985 14.2631 9.66699 14.2632C7.97345 14.2632 6.4544 13.6966 5.41602 12.8003C5.9271 12.8885 6.457 12.936 7 12.936C10.7681 12.9359 13.899 10.7008 14.543 7.75537Z" fill="#262F56"/>
<path d="M13.3337 6.63465C13.3337 9.3828 10.4981 11.6106 7.00033 11.6106C6.04768 11.6106 5.14415 11.4454 4.33366 11.1493C3.95204 11.01 2.63467 11.3481 1.68826 11.6253C1.28107 11.7445 0.893237 11.3381 1.02305 10.9342C1.2726 10.1576 1.52942 9.16653 1.33366 8.85933C0.90706 8.18987 0.666992 7.43429 0.666992 6.63465C0.666992 3.88651 3.50252 1.65869 7.00033 1.65869C10.4981 1.65869 13.3337 3.88651 13.3337 6.63465Z" fill="#262F56"/>
</svg>
