<svg width="16" height="16" viewBox="0 0 16 16" fill="none" xmlns="http://www.w3.org/2000/svg">
<path d="M7.26953 8.77063V14.7081H3.05273C2.27048 14.708 1.63673 14.0734 1.63672 13.2911V8.77063H7.26953ZM14.3643 13.2911C14.3642 14.0735 13.7297 14.7081 12.9473 14.7081H8.54395V8.77063H14.3643V13.2911ZM9.32031 1.34876C10.3583 0.687434 11.7361 0.99248 12.3975 2.0304C13.0587 3.06844 12.7528 4.44621 11.7148 5.10755C11.6855 5.12624 11.6538 5.14294 11.6221 5.16126H14.292C14.6832 5.16126 15 5.47904 15 5.87024V7.00696C15 7.20428 14.9084 7.37843 14.7676 7.49524H8.54395V5.03821H7.26953V7.49524H1.23242C1.09152 7.37842 1.00001 7.20415 1 7.00696V5.87024C1 5.47915 1.31696 5.16143 1.70801 5.16126H4.38086C4.3489 5.14283 4.31663 5.12635 4.28711 5.10755C3.2495 4.44613 2.94443 3.06828 3.60547 2.0304C4.26673 0.99274 5.64377 0.687804 6.68164 1.34876C7.11039 1.62193 7.61867 2.15363 8.00098 2.71497C8.38324 2.15362 8.89154 1.62203 9.32031 1.34876ZM5.99707 2.42395C5.55301 2.14115 4.96358 2.27182 4.68066 2.71595C4.39792 3.16008 4.52875 3.7494 4.97266 4.03235C5.24115 4.20337 5.84233 4.41638 6.44434 4.49134C6.73919 4.52802 6.99034 4.52475 7.1709 4.48938C7.36149 4.45196 7.37828 4.39986 7.3623 4.42493C7.3471 4.4491 7.38714 4.41114 7.34082 4.22376C7.29662 4.04507 7.19217 3.81654 7.03418 3.56458C6.71182 3.05052 6.26554 2.59505 5.99707 2.42395ZM11.3223 2.71595C11.0394 2.27194 10.4499 2.14128 10.0059 2.42395C9.73735 2.59511 9.29011 3.05051 8.96777 3.56458C8.80987 3.81646 8.70629 4.04512 8.66211 4.22376C8.61558 4.41197 8.6554 4.44974 8.63965 4.42493C8.62379 4.40011 8.64106 4.45202 8.83105 4.48938C9.01154 4.52482 9.26274 4.52798 9.55762 4.49134C10.1597 4.41643 10.7617 4.20339 11.0303 4.03235C11.474 3.74939 11.6049 3.16003 11.3223 2.71595Z" fill="#262F56"/>
</svg>
