<svg width="4" height="17" viewBox="0 0 4 17" fill="none" xmlns="http://www.w3.org/2000/svg">
<path d="M2 4.79809C3.1 4.79809 4 3.90242 4 2.80771C4 1.713 3.1 0.817322 2 0.817322C0.9 0.817322 0 1.713 0 2.80771C0 3.90242 0.9 4.79809 2 4.79809Z" fill="#262F56"/>
<path d="M2 6.78848C0.9 6.78848 0 7.68415 0 8.77886C0 9.87357 0.9 10.7692 2 10.7692C3.1 10.7692 4 9.87357 4 8.77886C4 7.68415 3.1 6.78848 2 6.78848Z" fill="#262F56"/>
<path d="M0 14.75C0 13.6553 0.9 12.7596 2 12.7596C3.1 12.7596 4 13.6553 4 14.75C4 15.8447 3.1 16.7404 2 16.7404C0.9 16.7404 0 15.8447 0 14.75Z" fill="#262F56"/>
</svg>
