<svg width="12" height="12" viewBox="0 0 12 12" fill="none" xmlns="http://www.w3.org/2000/svg">
<path d="M5.3623 6.97769V11.0998H2.87891C2.09683 11.0995 1.46311 10.4649 1.46289 9.68277V6.97769H5.3623ZM10.6768 9.68277C10.6765 10.465 10.042 11.0998 9.25977 11.0998H6.6377V6.97769H10.6768V9.68277ZM6.92969 1.28043C7.7631 0.749543 8.86946 0.994885 9.40039 1.82828C9.89709 2.60831 9.71366 3.62703 9.00488 4.18961H10.4287C10.8199 4.18961 11.1377 4.50641 11.1377 4.89762V5.52555C11.1375 5.65371 11.0847 5.7694 11 5.85269V5.7023H6.6377V4.09977H5.3623V5.7023H1.03711C1.01436 5.64794 1.00206 5.58816 1.00195 5.52555V4.89762C1.00195 4.50652 1.31891 4.18979 1.70996 4.18961H3.13379C2.42502 3.62703 2.2416 2.6083 2.73828 1.82828C3.2692 0.994898 4.37558 0.749576 5.20898 1.28043C5.49042 1.45977 5.80587 1.77305 6.06934 2.11734C6.3328 1.77304 6.64825 1.45978 6.92969 1.28043ZM4.52344 2.35562C4.28396 2.20346 3.96597 2.27447 3.81348 2.51383C3.6615 2.75328 3.7324 3.07135 3.97168 3.22379C4.13823 3.32962 4.54606 3.47744 4.96387 3.52945C5.15385 3.55308 5.30743 3.54965 5.41309 3.53238C5.38415 3.42944 5.32224 3.28914 5.2207 3.12711C4.99679 2.77005 4.68968 2.46162 4.52344 2.35562ZM8.3252 2.51383C8.1727 2.27445 7.85471 2.20342 7.61523 2.35562C7.44899 2.46162 7.14188 2.77005 6.91797 3.12711C6.81635 3.28927 6.75351 3.42942 6.72461 3.53238C6.8303 3.54981 6.98422 3.55316 7.1748 3.52945C7.59259 3.47745 8.0004 3.32963 8.16699 3.22379C8.40628 3.07134 8.47719 2.75328 8.3252 2.51383Z" fill="#262F56"/>
</svg>
