<svg width="12" height="12" viewBox="0 0 12 12" fill="none" xmlns="http://www.w3.org/2000/svg">
<g clip-path="url(#clip0_1_455)">
<path d="M5.7625 1.14749C5.78441 1.10322 5.81826 1.06596 5.86023 1.03991C5.90219 1.01385 5.9506 1.00005 6 1.00005C6.0494 1.00005 6.09781 1.01385 6.13977 1.03991C6.18174 1.06596 6.21559 1.10322 6.2375 1.14749L7.3925 3.48699C7.46859 3.64098 7.58091 3.7742 7.71981 3.87522C7.85872 3.97624 8.02006 4.04205 8.19 4.06699L10.773 4.44499C10.8219 4.45208 10.8679 4.47273 10.9057 4.50459C10.9436 4.53646 10.9717 4.57827 10.987 4.6253C11.0023 4.67232 11.0041 4.7227 10.9923 4.77071C10.9805 4.81873 10.9554 4.86247 10.92 4.89699L9.052 6.71599C8.92881 6.83604 8.83664 6.98423 8.78342 7.14781C8.7302 7.31138 8.71753 7.48544 8.7465 7.65499L9.1875 10.225C9.19614 10.2739 9.19086 10.3243 9.17225 10.3703C9.15364 10.4164 9.12247 10.4563 9.08227 10.4855C9.04208 10.5147 8.99449 10.532 8.94493 10.5354C8.89538 10.5389 8.84585 10.5283 8.802 10.505L6.493 9.29099C6.34086 9.21111 6.17159 9.16937 5.99975 9.16937C5.82791 9.16937 5.65864 9.21111 5.5065 9.29099L3.198 10.505C3.15417 10.5282 3.1047 10.5386 3.05523 10.5351C3.00575 10.5316 2.95826 10.5143 2.91815 10.4851C2.87804 10.4559 2.84692 10.4161 2.82833 10.3701C2.80974 10.3241 2.80443 10.2738 2.813 10.225L3.2535 7.65549C3.2826 7.48586 3.26999 7.31169 3.21677 7.14802C3.16355 6.98434 3.0713 6.83607 2.948 6.71599L1.08 4.89749C1.0443 4.86301 1.019 4.81919 1.00698 4.77103C0.994965 4.72287 0.996718 4.6723 1.01204 4.62509C1.02736 4.57787 1.05563 4.53591 1.09364 4.50398C1.13164 4.47205 1.17785 4.45144 1.227 4.44449L3.8095 4.06699C3.97963 4.04224 4.14119 3.97652 4.28029 3.87549C4.41939 3.77445 4.53185 3.64113 4.608 3.48699L5.7625 1.14749Z" fill="#F3BB44" stroke="#F3BB44" stroke-width="2" stroke-linecap="round" stroke-linejoin="round"/>
</g>
<defs>
<clipPath id="clip0_1_455">
<rect width="12" height="12" fill="white"/>
</clipPath>
</defs>
</svg>
